PathFileType	4	(X/Y/Z)	50_2_10_p0_0-254.trc
DataRate	CameraRate	NumFrames	NumMarkers	Units	OrigDataRate	OrigDataStartFrame	OrigNumFrames
48.0	48.0	5	27	m	48.0	0	255
Frame#	Time	RHip			RKnee			RAnkle			RBigToe			RSmallToe			RHeel			LHip			LKnee			LAnkle			LBigToe			LSmallToe			LHeel			Neck			Head			Nose			RShoulder			RElbow			RWrist			RThumb			RIndex			RPinky			LShoulder			LElbow			LWrist			LThumb			LIndex			LPinky			
		X1	Y1	Z1	X2	Y2	Z2	X3	Y3	Z3	X4	Y4	Z4	X5	Y5	Z5	X6	Y6	Z6	X7	Y7	Z7	X8	Y8	Z8	X9	Y9	Z9	X10	Y10	Z10	X11	Y11	Z11	X12	Y12	Z12	X13	Y13	Z13	X14	Y14	Z14	X15	Y15	Z15	X16	Y16	Z16	X17	Y17	Z17	X18	Y18	Z18	X19	Y19	Z19	X20	Y20	Z20	X21	Y21	Z21	X22	Y22	Z22	X23	Y23	Z23	X24	Y24	Z24	X25	Y25	Z25	X26	Y26	Z26	X27	Y27	Z27	
0	0.0	0.3109923669060405	0.7623497144001589	0.5153180515606668	0.31879324334660447	0.8758148239732485	0.8976990590791207	0.30732115804001664	1.018220329626447	1.3428521233037238	0.2611673678677033	0.8579125159208146	1.4134916293270565	0.3335175036788889	0.9033978819191175	1.4263340340833046	0.2796463561250699	1.143297853807566	1.3978070328893961	0.09861690334992004	0.7552625697578752	0.5339522194144516	0.10443246863714696	0.885280962025179	0.9133512685148886	0.08926331391461828	1.0108813904928289	1.3187184407718837	0.10667940182735583	0.8771291577942886	1.401665730394021	0.04313027509447402	0.8937698876951743	1.3893639096514474	0.10359566385165897	1.080643188286804	1.3799448205856761	0.1904498188775147	0.6235882826689646	-0.010905115358853844	0.2130700178550972	0.5227817057693642	-0.22572611091432515	0.20087751375721422	0.4499009161038765	-0.09664811136585953	0.33014366183303984	0.5861563164324295	0.07624153623197089	0.37145576375599026	0.6288437706053304	0.34998053344236085	0.2648743585229247	0.5941886568459968	0.5567926564147995	0.19871258568740463	0.604496472464291	0.640329224309062	0.1946953939373824	0.6165479746309098	0.659039502242047	0.20907199844680027	0.6490648554172186	0.6641164664798441	0.05116504182712409	0.6365647648927659	0.07886197111524434	0.028529908657517315	0.6400205443373395	0.3683563194627577	0.14462666427470344	0.6393724676138447	0.566676559383131	0.23103462500264701	0.6324251648647754	0.6134891100118145	0.23914977934922585	0.6510718126982625	0.6510033996559774	0.1950407805500574	0.6430193083544331	0.6866316869256218
1	0.020833333333333332	0.31359221237921514	0.7475887575583958	0.5184932705664624	0.3189472188403561	0.8762827817955828	0.8978699006718482	0.3074162903678778	1.0179954849666022	1.3427828739931924	0.2655289539709071	0.8720544017222676	1.4178824950372757	0.3385733740765289	0.9038276468740291	1.4263226815174839	0.2751759555380349	1.1263253389793395	1.39277349593393	0.09857422039765776	0.7548773975137775	0.5340868998738391	0.10480392191447128	0.8851524666802396	0.913180950171767	0.09035327269171164	1.008782509489874	1.313716303959953	0.10661700101134525	0.8769223934687013	1.4015735561715525	0.04294258608418335	0.8937023957203836	1.3893177760862967	0.1129360760723878	1.0621709781989999	1.3744660540988627	0.19010089088251012	0.6218285906421809	-0.014476575182094196	0.20962460711259384	0.5105281601737296	-0.2231304782061996	0.20484245242899277	0.4615631723233057	-0.09862603361717162	0.3344655436052927	0.5988367811300053	0.0749019562507841	0.37146064369652576	0.6288063375922338	0.3500104899474665	0.2607810244551328	0.609444979356888	0.5610210595486907	0.19154256518509802	0.6184603859670791	0.6377949003896309	0.18379024646106498	0.6317842087044382	0.6576829632532976	0.20453751781082238	0.6641275258937407	0.6692222904400307	0.05109830040822535	0.6365065870323073	0.0787659799018736	0.02870413069240608	0.6400572178475817	0.36809626700488335	0.144573828385378	0.6389258975909191	0.5667110960407061	0.2307854313478593	0.6323217399717582	0.6134694636940078	0.23502499100007085	0.6496004542650741	0.6510680489029573	0.19023502497812772	0.6561261225099466	0.6841754268135571
2	0.041666666666666664	0.3103845531105728	0.7625839816017299	0.5192489820984144	0.31801264212257313	0.8774857333099442	0.9017754321148315	0.302455370472904	1.0168484633643837	1.3425680432126674	0.2655000076546694	0.8720536441420317	1.417980106428373	0.3415573280602224	0.8857831246688604	1.4205846120757184	0.2797920612807348	1.1430721528828824	1.3976463618155683	0.09852565682784874	0.7547608845596692	0.533985012066896	0.10352446554888571	0.8847108841181791	0.9175755652916019	0.08933335579655065	1.0099815277772415	1.3183427798859084	0.10232136357283726	0.8584165166853891	1.3918399408187854	0.039466887133887754	0.8767081654104122	1.3841724501525599	0.10688592094684304	1.054860495404312	1.368286001133157	0.19008546018264386	0.621906809715686	-0.014477164332923866	0.20964819430036938	0.5105206024334509	-0.22307353453094048	0.20484155332523243	0.4615590482674816	-0.09860939820877468	0.33445150596902884	0.5988782000332266	0.07492394419876384	0.3713856125690498	0.6286425924397292	0.35000544907930553	0.26078274810228796	0.6094310739373834	0.5610737947300137	0.18714668825092037	0.6044229740045866	0.6371627988302931	0.18359051923328062	0.630885925951908	0.6577233508033282	0.20014563577991318	0.6495768238416614	0.6678057165169217	0.05110702099391699	0.6365196804539994	0.07870235767010962	0.02879712052957788	0.6402373020666499	0.3680703297767749	0.1444078636815198	0.6390738606439856	0.5627802288524093	0.22732657593122313	0.621481856242824	0.6125457556559117	0.2307868493012476	0.6372272193496139	0.6457466927462013	0.18253409933025092	0.6423937173942708	0.6826927399103505
3	0.0625	0.30917697461091426	0.7614205493713614	0.5184546414367602	0.3180048548538606	0.8773593128804015	0.9018280276399837	0.30734107052857934	1.018073274927939	1.3429114721542244	0.265431311715	0.872090034843279	1.4179845096827586	0.3384156774303244	0.9037821888458307	1.4264488191005238	0.2750360215401382	1.126058057668804	1.3928571911717393	0.10195254572201125	0.7370231327639301	0.5285834376457915	0.1020298395268076	0.8869629710824137	0.9218747649918804	0.08927474384315862	1.010064193838256	1.3183326143862366	0.10573692836236227	0.8738402214090637	1.3967538080218946	0.039370268835672774	0.8773981943895963	1.384385961947996	0.1131218925686446	1.0621900200284344	1.3744054237126215	0.19007527546566713	0.6218349192229435	-0.014478982627242143	0.20963158179101027	0.5108201536248793	-0.22310674881086015	0.20093038447862469	0.44992777904752146	-0.0966349510908725	0.3302371379569919	0.5860780041304842	0.07625401221295323	0.3714777349888766	0.6286756228869456	0.3500565530588572	0.2609408961827929	0.6094215813258309	0.5647304827553727	0.1907175971487552	0.6034106543339202	0.6374736631973725	0.18332471628280325	0.631113336992989	0.6548749722053153	0.2044345622672335	0.6643334870993821	0.669220327212218	0.0511354008622738	0.6365843889906466	0.07870872799350054	0.02863435328844313	0.6397495068647673	0.36793193002760893	0.14382377328215123	0.6400728975042353	0.5662910204300854	0.22683192033914507	0.6227726317336382	0.6123787652194117	0.2260170550892851	0.6241088369298075	0.6444489524094209	0.18245352155869993	0.6415943372883165	0.6822758079926631
4	0.08333333333333333	0.31301636990793663	0.7487947905689794	0.5223153854366528	0.31817670576448676	0.877481762074377	0.9019001965513702	0.3024870705338671	1.0167325754719034	1.3425325710855716	0.2654387394303403	0.8720807927076812	1.4180092495660115	0.3414631516099035	0.8857146661867996	1.4206055839339142	0.28330589771605724	1.1225444643602418	1.3917893367350136	0.10207867573395311	0.7373252376320355	0.5284734262846349	0.102130652756747	0.8866397105796658	0.9219014893817516	0.0894397604460277	1.0101438895441441	1.318483500352164	0.10574697789006099	0.8738799242909332	1.3967978007221147	0.03947105896518883	0.8776246763460708	1.3844666375554102	0.1121969679992476	1.0643685590030558	1.3797029245933	0.19042344786364807	0.6237774871747225	-0.010959836002579697	0.20976657102132218	0.5108669363953454	-0.22323597392480105	0.2008809151525754	0.44989144080620624	-0.09663284887043186	0.3330146934809904	0.5724716711572456	0.07764384761332681	0.3760742639300185	0.6295721233304299	0.350034505304954	0.2609693643991726	0.6094485136535637	0.5648166157870754	0.19090486757628644	0.6035397498397912	0.6373328144116924	0.18342257332197762	0.63146113631139	0.6545648341301726	0.20429090363804944	0.6645176858362954	0.6656514629626953	0.05114344480076582	0.6366093935108619	0.07873486468697316	0.029335860012691284	0.6409376196878638	0.3684443815646918	0.1437463821941296	0.6402414602144382	0.5663999024337771	0.22702316354495136	0.6227733208851696	0.6121880170786806	0.2299289022801526	0.636993867811519	0.6414743047958439	0.18700882811524652	0.6538456156240423	0.6830253367636056
